<svg xmlns="http://www.w3.org/2000/svg" viewBox="0 0 512 512">
  <defs>
    <linearGradient id="bg" x1="0%" y1="0%" x2="100%" y2="100%">
      <stop offset="0%" stop-color="#f7f0e5" />
      <stop offset="100%" stop-color="#e4c8a8" />
    </linearGradient>
    <linearGradient id="ink" x1="0%" y1="0%" x2="100%" y2="100%">
      <stop offset="0%" stop-color="#9f5528" />
      <stop offset="100%" stop-color="#6f3113" />
    </linearGradient>
  </defs>
  <rect width="512" height="512" rx="116" fill="url(#bg)" />
  <path
    d="M146 128c0-12 10-22 22-22h176c12 0 22 10 22 22v256c0 12-10 22-22 22H168c-12 0-22-10-22-22V128Z"
    fill="#fffaf4"
    stroke="#c79061"
    stroke-width="18"
  />
  <path
    d="M192 180c0-8 6-14 14-14h101c8 0 14 6 14 14s-6 14-14 14H206c-8 0-14-6-14-14Zm0 58c0-8 6-14 14-14h101c8 0 14 6 14 14s-6 14-14 14H206c-8 0-14-6-14-14Zm0 58c0-8 6-14 14-14h62c8 0 14 6 14 14s-6 14-14 14h-62c-8 0-14-6-14-14Z"
    fill="url(#ink)"
  />
  <path
    d="M336 330c24 0 44 20 44 44s-20 44-44 44-44-20-44-44 20-44 44-44Zm0 22c-12 0-22 10-22 22s10 22 22 22 22-10 22-22-10-22-22-22Z"
    fill="url(#ink)"
  />
</svg>
